<?xml version="1.0" standalone="no"?>
<!DOCTYPE svg PUBLIC "-//W3C//DTD SVG 20010904//EN"
 "http://www.w3.org/TR/2001/REC-SVG-20010904/DTD/svg10.dtd">
<svg version="1.0" xmlns="http://www.w3.org/2000/svg"
 width="500.000000pt" height="500.000000pt" viewBox="0 0 500.000000 500.000000"
 preserveAspectRatio="xMidYMid meet">

<g transform="translate(0.000000,500.000000) scale(0.100000,-0.100000)"
fill="#000000" stroke="none">
<path d="M1650 2980 l0 -220 166 0 c128 0 165 3 162 13 -3 8 -47 13 -154 17
l-149 5 0 85 0 85 123 3 c99 2 122 5 122 17 0 12 -22 15 -125 15 l-126 0 3 88
3 87 148 3 c204 4 193 22 -13 22 l-160 0 0 -220z"/>
<path d="M2110 2980 l0 -220 113 0 c129 0 173 15 224 73 42 47 56 96 51 173
-5 78 -41 136 -107 171 -39 20 -58 23 -163 23 l-118 0 0 -220z m266 172 c133
-68 125 -289 -13 -348 -20 -9 -69 -14 -128 -14 l-95 0 0 188 c0 104 3 192 8
196 4 5 48 6 97 4 65 -4 102 -11 131 -26z"/>
<path d="M2640 2980 l0 -220 125 0 c139 0 178 10 213 55 42 53 18 142 -44 165
l-23 9 29 29 c36 37 46 73 29 113 -23 57 -58 69 -201 69 l-128 0 0 -220z m243
189 c73 -20 88 -110 24 -149 -26 -16 -50 -20 -134 -20 l-103 0 0 83 c0 46 3
87 7 90 10 11 164 8 206 -4z m62 -229 c27 -25 33 -67 15 -101 -21 -37 -63 -49
-180 -49 l-110 0 0 90 0 89 68 3 c114 5 178 -5 207 -32z"/>
<path d="M3140 3045 c0 -173 7 -204 59 -248 63 -53 165 -59 233 -14 18 12 43
42 56 67 20 40 22 58 22 197 0 129 -2 153 -15 153 -13 0 -15 -23 -15 -150 0
-165 -8 -202 -54 -238 -35 -27 -107 -38 -155 -24 -20 7 -50 25 -66 42 l-30 31
-3 170 c-3 139 -6 169 -18 169 -11 0 -14 -27 -14 -155z"/>
<path d="M3660 2980 l0 -220 103 0 c125 0 167 11 217 56 52 48 74 106 68 188
-5 80 -41 138 -107 173 -39 20 -58 23 -163 23 l-118 0 0 -220z m274 166 c58
-34 85 -86 86 -163 0 -63 -13 -99 -48 -137 -42 -44 -81 -56 -187 -56 l-95 0 0
188 c0 104 3 192 8 196 4 5 48 6 97 4 78 -3 98 -8 139 -32z"/>
<path d="M820 3000 c0 -5 27 -10 61 -12 l60 -3 -58 -80 c-33 -44 -62 -86 -67
-92 -5 -10 12 -13 76 -11 l83 2 -68 3 c-81 5 -81 1 -3 107 31 41 56 80 56 85
0 7 -28 11 -70 11 -38 0 -70 -4 -70 -10z"/>
<path d="M1012 2904 c1 -60 3 -88 5 -61 4 47 4 47 41 47 33 0 40 -5 65 -46 15
-26 30 -44 33 -41 3 3 -6 22 -20 43 l-25 37 25 19 c27 22 33 68 9 88 -8 6 -41
14 -75 17 l-60 6 2 -109z m119 76 c10 -6 19 -19 19 -30 0 -33 -28 -50 -81 -50
l-49 0 0 45 0 45 46 0 c25 0 54 -5 65 -10z"/>
<path d="M1213 3004 c-9 -4 -13 -35 -13 -105 l0 -99 65 0 c52 0 69 4 85 20 25
25 25 45 2 68 -16 16 -17 22 -5 37 30 43 5 72 -67 79 -30 3 -61 3 -67 0z m125
-42 c5 -37 -15 -52 -69 -52 l-49 0 0 40 0 41 58 -3 c51 -3 57 -5 60 -26z m9
-89 c13 -19 12 -24 -6 -42 -16 -16 -34 -21 -71 -21 l-50 0 0 45 0 46 56 -3
c45 -2 60 -7 71 -25z"/>
<path d="M670 2550 c0 -7 597 -10 1770 -10 1173 0 1770 3 1770 10 0 7 -597 10
-1770 10 -1173 0 -1770 -3 -1770 -10z"/>
</g>
</svg>
